<svg xmlns="http://www.w3.org/2000/svg" xmlns:xlink="http://www.w3.org/1999/xlink" version="1.1" id="Layer_1" x="0" y="0" viewBox="0 0 50 25" enable-background="new 0 0 50 25" xml:space="preserve">
  <path fill="#51A5DB" d="M28.8 16.4c0 0-0.1-0.1-0.1-0.1H9c-0.1 0-0.1 0.1-0.1 0.2v8.2c0 0.1 0.1 0.2 0.1 0.2h12.3c0 0 0.1 0 0.1 0l7.3-8.2C28.8 16.6 28.8 16.5 28.8 16.4z"/>
  <path fill="#13313E" d="M21.2 16.3h-1l1 8.4C21.1 24.8 21.2 16.3 21.2 16.3z"/>
  <path fill="#51A5DB" d="M17.6 8.3h-7.4c-0.1 0-0.1 0.1-0.1 0.2v8.2c0 0.1 0.1 0.2 0.1 0.2h7.3c0.1 0 0.1-0.1 0.1-0.2V8.5C17.7 8.4 17.7 8.3 17.6 8.3z"/>
  <rect x="10.1" y="8.7" fill="#13313E" width="0" height="0.9"/>
  <path fill="#13313E" d="M17.6 8.6c0-0.1 0-0.2 0-0.2h-7.4c-0.1 0-0.1 0.1-0.1 0.2v0.2 0.9L17.6 8.6z"/>
  <path fill="#27627D" d="M28.7 0.1c0 0-0.1 0-0.1 0l-7.3 4.3c0 0-0.1 0.1-0.1 0.1v20.1c0 0.1 0 0.1 0.1 0.2h0c0 0 0.1 0 0.1 0l7.3-8.2c0 0 0-0.1 0-0.1V0.2C28.8 0.2 28.8 0.1 28.7 0.1z"/>
  <path fill="#28637E" d="M28.7 0.1c0 0-0.1 0-0.1 0l-7.3 4.3c0 0-0.1 0.1-0.1 0.1v20.1c0 0.1 0 0.1 0.1 0.2h0c0 0 0.1 0 0.1 0l7.3-8.2c0 0 0-0.1 0-0.1V0.2C28.8 0.2 28.8 0.1 28.7 0.1z"/>
  <path fill="#13313E" d="M27.2 11.3l-6-6.5c0 0 0-0.1 0-0.1l0 0v2l6.1 5.2 1.5 1.3V13L27.2 11.3z"/>
  <path fill="#51A5DB" d="M35.9 8l-7.1-7.9c0 0-0.1 0-0.2 0l-7.3 4.4c0 0-0.1 0.1-0.1 0.1s0 0.1 0 0.1l9 9.8c0 0 0.1 0 0.1 0 0 0 0.1 0 0.1 0l5.4-6.1C35.9 8.2 35.9 8.1 35.9 8z"/>
  <path fill="#27627D" d="M42.6 0.1c0 0-0.1 0-0.2 0L30.2 14.3c0 0 0 0.1 0 0.2 0 0 0.1 0.1 0.1 0.1l10.3 0 0 0c0 0 0.1 0 0.1 0l1.9-2.2c0 0 0-0.1 0-0.1l0-12C42.7 0.2 42.7 0.1 42.6 0.1z"/>
  <path fill="#28637E" d="M42.6 0.1c0 0-0.1 0-0.2 0L30.2 14.3c0 0 0 0.1 0 0.2 0 0 0.1 0.1 0.1 0.1l10.3 0 0 0c0 0 0.1 0 0.1 0l1.9-2.2c0 0 0-0.1 0-0.1l0-12C42.7 0.2 42.7 0.1 42.6 0.1z"/>
  <polygon fill="#13313E" points="41.4 1.4 42.4 9.5 42.4 0.2 "/>
  <path fill="#51A5DB" d="M49.9 3.5l-7.3-3.4c-0.1 0-0.1 0-0.2 0 0 0 0 0 0 0.1l0 24.5c0 0 0 0.1 0 0.1s0.1 0 0.1 0h7.3c0.1 0 0.1-0.1 0.1-0.2v-21C50 3.6 50 3.6 49.9 3.5z"/>
  <path fill="#27627D" d="M10.5 0C10.5 0 10.4 0 10.5 0L0.1 0C0.1 0 0 0.1 0 0.2v8.2c0 0.1 0.1 0.2 0.1 0.2h17.4c0.1 0 0.1-0.1 0.1-0.2 0 0-0.1-0.1-0.1-0.1L10.5 0z"/>
  <path fill="#13313E" d="M10.3 24.9H12l5.7-8.2 0-0.2C16.3 18.1 10.3 24.9 10.3 24.9z"/>
  <path fill="#27627D" d="M17.6 16.3H0.2c-0.1 0-0.1 0.1-0.1 0.2v8.2c0 0.1 0.1 0.2 0.1 0.2h10.2c0 0 0.1 0 0.1 0l7.2-8.2c0 0 0-0.1 0-0.2C17.7 16.4 17.7 16.3 17.6 16.3z"/>
  <path fill="#28637E" d="M17.6 16.3H0.2c-0.1 0-0.1 0.1-0.1 0.2v8.2c0 0.1 0.1 0.2 0.1 0.2h10.2c0 0 0.1 0 0.1 0l7.2-8.2c0 0 0-0.1 0-0.2C17.7 16.4 17.7 16.3 17.6 16.3z"/>
</svg>