<svg id="Layer_4" data-name="water-drop-pattern" xmlns="http://www.w3.org/2000/svg" viewBox="0 0 50.25 36.22" preserveAspectRatio="xMidYMid slice"><title>water-drop-pattern</title><rect y="0.04" width="50.19" height="36.14" fill="#aad6ea"/><polygon points="8.4 7.25 4.22 9.66 0.04 7.25 4.22 4.83 8.4 7.25" fill="#aad6ea" stroke="#27627d" stroke-linecap="round" stroke-linejoin="round" stroke-width="0.08"/><polygon points="4.22 14.48 0.04 12.07 0.04 7.24 4.22 9.65 4.22 14.48" fill="#50a5dc" stroke="#27627d" stroke-linecap="round" stroke-linejoin="round" stroke-width="0.08"/><polygon points="8.4 12.07 4.22 14.48 4.22 9.65 8.4 7.24 8.4 12.07" fill="#ff818f" stroke="#27627d" stroke-linecap="round" stroke-linejoin="round" stroke-width="0.08"/><polygon points="16.76 7.25 12.58 9.66 8.4 7.25 12.58 4.83 16.76 7.25" fill="#aad6ea" stroke="#27627d" stroke-linecap="round" stroke-linejoin="round" stroke-width="0.08"/><polygon points="12.58 14.48 8.4 12.07 8.4 7.24 12.58 9.65 12.58 14.48" fill="#50a5dc" stroke="#27627d" stroke-linecap="round" stroke-linejoin="round" stroke-width="0.08"/><polygon points="16.76 12.07 12.58 14.48 12.58 9.65 16.76 7.24 16.76 12.07" fill="#ff818f" stroke="#27627d" stroke-linecap="round" stroke-linejoin="round" stroke-width="0.08"/><polygon points="16.76 7.25 12.58 9.66 8.4 7.25 12.58 4.83 16.76 7.25" fill="#aad6ea" stroke="#27627d" stroke-linecap="round" stroke-linejoin="round" stroke-width="0.08"/><polygon points="12.58 14.48 8.4 12.07 8.4 7.24 12.58 9.65 12.58 14.48" fill="#50a5dc" stroke="#27627d" stroke-linecap="round" stroke-linejoin="round" stroke-width="0.08"/><polygon points="16.76 12.07 12.58 14.48 12.58 9.65 16.76 7.24 16.76 12.07" fill="#ff818f" stroke="#27627d" stroke-linecap="round" stroke-linejoin="round" stroke-width="0.08"/><polygon points="25.12 7.25 20.94 9.66 16.76 7.25 20.94 4.83 25.12 7.25" fill="#aad6ea" stroke="#27627d" stroke-linecap="round" stroke-linejoin="round" stroke-width="0.08"/><polygon points="20.94 14.48 16.76 12.07 16.76 7.24 20.94 9.65 20.94 14.48" fill="#50a5dc" stroke="#27627d" stroke-linecap="round" stroke-linejoin="round" stroke-width="0.08"/><polygon points="25.13 12.07 20.95 14.48 20.95 9.65 25.13 7.24 25.13 12.07" fill="#ff818f" stroke="#27627d" stroke-linecap="round" stroke-linejoin="round" stroke-width="0.08"/><polygon points="33.48 7.25 29.3 9.66 25.12 7.25 29.3 4.83 33.48 7.25" fill="#aad6ea" stroke="#27627d" stroke-linecap="round" stroke-linejoin="round" stroke-width="0.08"/><polygon points="29.3 14.48 25.12 12.07 25.12 7.24 29.3 9.65 29.3 14.48" fill="#50a5dc" stroke="#27627d" stroke-linecap="round" stroke-linejoin="round" stroke-width="0.08"/><polygon points="33.49 12.07 29.31 14.48 29.31 9.65 33.49 7.24 33.49 12.07" fill="#ff818f" stroke="#27627d" stroke-linecap="round" stroke-linejoin="round" stroke-width="0.08"/><polygon points="41.84 7.25 37.66 9.66 33.48 7.25 37.66 4.83 41.84 7.25" fill="#aad6ea" stroke="#27627d" stroke-linecap="round" stroke-linejoin="round" stroke-width="0.08"/><polygon points="37.66 14.48 33.48 12.07 33.48 7.24 37.67 9.65 37.66 14.48" fill="#50a5dc" stroke="#27627d" stroke-linecap="round" stroke-linejoin="round" stroke-width="0.08"/><polygon points="41.85 12.07 37.67 14.48 37.67 9.65 41.85 7.24 41.85 12.07" fill="#ff818f" stroke="#27627d" stroke-linecap="round" stroke-linejoin="round" stroke-width="0.08"/><polygon points="50.21 7.25 46.03 9.66 41.85 7.25 46.03 4.83 50.21 7.25" fill="#aad6ea" stroke="#27627d" stroke-linecap="round" stroke-linejoin="round" stroke-width="0.08"/><polygon points="46.03 14.48 41.85 12.07 41.85 7.24 46.03 9.65 46.03 14.48" fill="#50a5dc" stroke="#27627d" stroke-linecap="round" stroke-linejoin="round" stroke-width="0.08"/><polygon points="50.21 12.07 46.03 14.48 46.03 9.65 50.21 7.24 50.21 12.07" fill="#ff818f" stroke="#27627d" stroke-linecap="round" stroke-linejoin="round" stroke-width="0.08"/><polygon points="12.56 14.48 8.38 16.89 4.2 14.48 8.38 12.07 12.56 14.48" fill="#aad6ea" stroke="#27627d" stroke-linecap="round" stroke-linejoin="round" stroke-width="0.08"/><polygon points="8.38 21.72 4.2 19.3 4.2 14.48 8.38 16.89 8.38 21.72" fill="#50a5dc" stroke="#27627d" stroke-linecap="round" stroke-linejoin="round" stroke-width="0.08"/><polygon points="12.56 19.3 8.38 21.72 8.38 16.89 12.56 14.48 12.56 19.3" fill="#ff818f" stroke="#27627d" stroke-linecap="round" stroke-linejoin="round" stroke-width="0.08"/><polygon points="20.92 14.48 16.74 16.89 12.56 14.48 16.74 12.07 20.92 14.48" fill="#aad6ea" stroke="#27627d" stroke-linecap="round" stroke-linejoin="round" stroke-width="0.08"/><polygon points="16.74 21.72 12.56 19.3 12.56 14.48 16.74 16.89 16.74 21.72" fill="#50a5dc" stroke="#27627d" stroke-linecap="round" stroke-linejoin="round" stroke-width="0.08"/><polygon points="20.93 19.3 16.75 21.72 16.75 16.89 20.93 14.48 20.93 19.3" fill="#ff818f" stroke="#27627d" stroke-linecap="round" stroke-linejoin="round" stroke-width="0.08"/><polygon points="20.92 14.48 16.74 16.89 12.56 14.48 16.74 12.07 20.92 14.48" fill="#aad6ea" stroke="#27627d" stroke-linecap="round" stroke-linejoin="round" stroke-width="0.08"/><polygon points="16.74 21.72 12.56 19.3 12.56 14.48 16.74 16.89 16.74 21.72" fill="#50a5dc" stroke="#27627d" stroke-linecap="round" stroke-linejoin="round" stroke-width="0.08"/><polygon points="20.93 19.3 16.75 21.72 16.75 16.89 20.93 14.48 20.93 19.3" fill="#ff818f" stroke="#27627d" stroke-linecap="round" stroke-linejoin="round" stroke-width="0.08"/><polygon points="29.28 14.48 25.1 16.89 20.92 14.48 25.1 12.07 29.28 14.48" fill="#aad6ea" stroke="#27627d" stroke-linecap="round" stroke-linejoin="round" stroke-width="0.08"/><polygon points="25.1 21.72 20.92 19.3 20.92 14.48 25.1 16.89 25.1 21.72" fill="#50a5dc" stroke="#27627d" stroke-linecap="round" stroke-linejoin="round" stroke-width="0.08"/><polygon points="29.29 19.3 25.11 21.72 25.11 16.89 29.29 14.48 29.29 19.3" fill="#ff818f" stroke="#27627d" stroke-linecap="round" stroke-linejoin="round" stroke-width="0.08"/><polygon points="37.64 14.48 33.46 16.89 29.28 14.48 33.46 12.07 37.64 14.48" fill="#aad6ea" stroke="#27627d" stroke-linecap="round" stroke-linejoin="round" stroke-width="0.08"/><polygon points="33.46 21.72 29.28 19.3 29.29 14.48 33.47 16.89 33.46 21.72" fill="#50a5dc" stroke="#27627d" stroke-linecap="round" stroke-linejoin="round" stroke-width="0.08"/><polygon points="37.65 19.3 33.47 21.72 33.47 16.89 37.65 14.48 37.65 19.3" fill="#ff818f" stroke="#27627d" stroke-linecap="round" stroke-linejoin="round" stroke-width="0.08"/><polygon points="46.01 14.48 41.83 16.89 37.65 14.48 41.83 12.07 46.01 14.48" fill="#aad6ea" stroke="#27627d" stroke-linecap="round" stroke-linejoin="round" stroke-width="0.08"/><polygon points="41.83 21.72 37.65 19.3 37.65 14.48 41.83 16.89 41.83 21.72" fill="#50a5dc" stroke="#27627d" stroke-linecap="round" stroke-linejoin="round" stroke-width="0.08"/><polygon points="46.01 19.3 41.83 21.72 41.83 16.89 46.01 14.48 46.01 19.3" fill="#ff818f" stroke="#27627d" stroke-linecap="round" stroke-linejoin="round" stroke-width="0.08"/><polygon points="50.19 21.72 46.01 19.3 46.01 14.48 50.19 16.89 50.19 21.72" fill="#50a5dc" stroke="#27627d" stroke-linecap="round" stroke-linejoin="round" stroke-width="0.08"/><polygon points="4.22 19.3 0.04 21.72 0.04 16.89 4.22 14.48 4.22 19.3" fill="#ff818f" stroke="#27627d" stroke-linecap="round" stroke-linejoin="round" stroke-width="0.08"/><polygon points="8.38 7.28 4.2 4.87 4.2 0.04 8.38 2.45 8.38 7.28" fill="#50a5dc" stroke="#27627d" stroke-linecap="round" stroke-linejoin="round" stroke-width="0.08"/><polygon points="12.56 4.87 8.38 7.28 8.38 2.45 12.56 0.04 12.56 4.87" fill="#ff818f" stroke="#27627d" stroke-linecap="round" stroke-linejoin="round" stroke-width="0.08"/><polygon points="16.74 7.28 12.56 4.87 12.56 0.04 16.74 2.45 16.74 7.28" fill="#50a5dc" stroke="#27627d" stroke-linecap="round" stroke-linejoin="round" stroke-width="0.08"/><polygon points="20.93 4.87 16.75 7.28 16.75 2.45 20.93 0.04 20.93 4.87" fill="#ff818f" stroke="#27627d" stroke-linecap="round" stroke-linejoin="round" stroke-width="0.08"/><polygon points="16.74 7.28 12.56 4.87 12.56 0.04 16.74 2.45 16.74 7.28" fill="#50a5dc" stroke="#27627d" stroke-linecap="round" stroke-linejoin="round" stroke-width="0.08"/><polygon points="20.93 4.87 16.75 7.28 16.75 2.45 20.93 0.04 20.93 4.87" fill="#ff818f" stroke="#27627d" stroke-linecap="round" stroke-linejoin="round" stroke-width="0.08"/><polygon points="25.1 7.28 20.92 4.87 20.92 0.04 25.1 2.45 25.1 7.28" fill="#50a5dc" stroke="#27627d" stroke-linecap="round" stroke-linejoin="round" stroke-width="0.08"/><polygon points="29.29 4.87 25.11 7.28 25.11 2.45 29.29 0.04 29.29 4.87" fill="#ff818f" stroke="#27627d" stroke-linecap="round" stroke-linejoin="round" stroke-width="0.08"/><polygon points="33.46 7.28 29.28 4.87 29.29 0.04 33.47 2.45 33.46 7.28" fill="#50a5dc" stroke="#27627d" stroke-linecap="round" stroke-linejoin="round" stroke-width="0.08"/><polygon points="37.65 4.87 33.47 7.28 33.47 2.45 37.65 0.04 37.65 4.87" fill="#ff818f" stroke="#27627d" stroke-linecap="round" stroke-linejoin="round" stroke-width="0.08"/><polygon points="41.83 7.28 37.65 4.87 37.65 0.04 41.83 2.45 41.83 7.28" fill="#50a5dc" stroke="#27627d" stroke-linecap="round" stroke-linejoin="round" stroke-width="0.08"/><polygon points="46.01 4.87 41.83 7.28 41.83 2.45 46.01 0.04 46.01 4.87" fill="#ff818f" stroke="#27627d" stroke-linecap="round" stroke-linejoin="round" stroke-width="0.08"/><polygon points="50.19 7.28 46.01 4.87 46.01 0.04 50.19 2.45 50.19 7.28" fill="#50a5dc" stroke="#27627d" stroke-linecap="round" stroke-linejoin="round" stroke-width="0.08"/><polygon points="4.22 4.87 0.04 7.28 0.04 2.45 4.22 0.04 4.22 4.87" fill="#ff818f" stroke="#27627d" stroke-linecap="round" stroke-linejoin="round" stroke-width="0.08"/><polygon points="8.4 21.71 4.22 24.13 0.04 21.71 4.22 19.3 8.4 21.71" fill="#aad6ea" stroke="#27627d" stroke-linecap="round" stroke-linejoin="round" stroke-width="0.08"/><polygon points="4.22 28.95 0.04 26.54 0.04 21.71 4.22 24.12 4.22 28.95" fill="#50a5dc" stroke="#27627d" stroke-linecap="round" stroke-linejoin="round" stroke-width="0.08"/><polygon points="8.4 26.54 4.22 28.95 4.22 24.12 8.4 21.71 8.4 26.54" fill="#ff818f" stroke="#27627d" stroke-linecap="round" stroke-linejoin="round" stroke-width="0.08"/><polygon points="16.76 21.71 12.58 24.13 8.4 21.71 12.58 19.3 16.76 21.71" fill="#aad6ea" stroke="#27627d" stroke-linecap="round" stroke-linejoin="round" stroke-width="0.08"/><polygon points="12.58 28.95 8.4 26.54 8.4 21.71 12.58 24.12 12.58 28.95" fill="#50a5dc" stroke="#27627d" stroke-linecap="round" stroke-linejoin="round" stroke-width="0.08"/><polygon points="16.76 26.54 12.58 28.95 12.58 24.12 16.76 21.71 16.76 26.54" fill="#ff818f" stroke="#27627d" stroke-linecap="round" stroke-linejoin="round" stroke-width="0.08"/><polygon points="16.76 21.71 12.58 24.13 8.4 21.71 12.58 19.3 16.76 21.71" fill="#aad6ea" stroke="#27627d" stroke-linecap="round" stroke-linejoin="round" stroke-width="0.08"/><polygon points="12.58 28.95 8.4 26.54 8.4 21.71 12.58 24.12 12.58 28.95" fill="#50a5dc" stroke="#27627d" stroke-linecap="round" stroke-linejoin="round" stroke-width="0.08"/><polygon points="16.76 26.54 12.58 28.95 12.58 24.12 16.76 21.71 16.76 26.54" fill="#ff818f" stroke="#27627d" stroke-linecap="round" stroke-linejoin="round" stroke-width="0.08"/><polygon points="25.12 21.71 20.94 24.13 16.76 21.71 20.94 19.3 25.12 21.71" fill="#aad6ea" stroke="#27627d" stroke-linecap="round" stroke-linejoin="round" stroke-width="0.08"/><polygon points="20.94 28.95 16.76 26.54 16.76 21.71 20.94 24.12 20.94 28.95" fill="#50a5dc" stroke="#27627d" stroke-linecap="round" stroke-linejoin="round" stroke-width="0.08"/><polygon points="25.13 26.54 20.95 28.95 20.95 24.12 25.13 21.71 25.13 26.54" fill="#ff818f" stroke="#27627d" stroke-linecap="round" stroke-linejoin="round" stroke-width="0.08"/><polygon points="33.48 21.71 29.3 24.13 25.12 21.71 29.3 19.3 33.48 21.71" fill="#aad6ea" stroke="#27627d" stroke-linecap="round" stroke-linejoin="round" stroke-width="0.08"/><polygon points="29.3 28.95 25.12 26.54 25.12 21.71 29.3 24.12 29.3 28.95" fill="#50a5dc" stroke="#27627d" stroke-linecap="round" stroke-linejoin="round" stroke-width="0.08"/><polygon points="33.49 26.54 29.31 28.95 29.31 24.12 33.49 21.71 33.49 26.54" fill="#ff818f" stroke="#27627d" stroke-linecap="round" stroke-linejoin="round" stroke-width="0.08"/><polygon points="41.84 21.71 37.66 24.13 33.48 21.71 37.66 19.3 41.84 21.71" fill="#aad6ea" stroke="#27627d" stroke-linecap="round" stroke-linejoin="round" stroke-width="0.08"/><polygon points="37.66 28.95 33.48 26.54 33.48 21.71 37.67 24.12 37.66 28.95" fill="#50a5dc" stroke="#27627d" stroke-linecap="round" stroke-linejoin="round" stroke-width="0.08"/><polygon points="41.85 26.54 37.67 28.95 37.67 24.12 41.85 21.71 41.85 26.54" fill="#ff818f" stroke="#27627d" stroke-linecap="round" stroke-linejoin="round" stroke-width="0.08"/><polygon points="50.21 21.71 46.03 24.13 41.85 21.71 46.03 19.3 50.21 21.71" fill="#aad6ea" stroke="#27627d" stroke-linecap="round" stroke-linejoin="round" stroke-width="0.08"/><polygon points="46.03 28.95 41.85 26.54 41.85 21.71 46.03 24.12 46.03 28.95" fill="#50a5dc" stroke="#27627d" stroke-linecap="round" stroke-linejoin="round" stroke-width="0.08"/><polygon points="50.21 26.54 46.03 28.95 46.03 24.12 50.21 21.71 50.21 26.54" fill="#ff818f" stroke="#27627d" stroke-linecap="round" stroke-linejoin="round" stroke-width="0.08"/><polygon points="12.56 28.95 8.38 31.36 4.2 28.95 8.38 26.54 12.56 28.95" fill="#aad6ea" stroke="#27627d" stroke-linecap="round" stroke-linejoin="round" stroke-width="0.08"/><polygon points="8.38 36.19 4.2 33.77 4.2 28.95 8.38 31.36 8.38 36.19" fill="#50a5dc" stroke="#27627d" stroke-linecap="round" stroke-linejoin="round" stroke-width="0.08"/><polygon points="12.56 33.77 8.38 36.19 8.38 31.36 12.56 28.95 12.56 33.77" fill="#ff818f" stroke="#27627d" stroke-linecap="round" stroke-linejoin="round" stroke-width="0.08"/><polygon points="20.92 28.95 16.74 31.36 12.56 28.95 16.74 26.54 20.92 28.95" fill="#aad6ea" stroke="#27627d" stroke-linecap="round" stroke-linejoin="round" stroke-width="0.08"/><polygon points="16.74 36.19 12.56 33.77 12.56 28.95 16.74 31.36 16.74 36.19" fill="#50a5dc" stroke="#27627d" stroke-linecap="round" stroke-linejoin="round" stroke-width="0.08"/><polygon points="20.93 33.77 16.75 36.19 16.75 31.36 20.93 28.95 20.93 33.77" fill="#ff818f" stroke="#27627d" stroke-linecap="round" stroke-linejoin="round" stroke-width="0.08"/><polygon points="20.92 28.95 16.74 31.36 12.56 28.95 16.74 26.54 20.92 28.95" fill="#aad6ea" stroke="#27627d" stroke-linecap="round" stroke-linejoin="round" stroke-width="0.08"/><polygon points="16.74 36.19 12.56 33.77 12.56 28.95 16.74 31.36 16.74 36.19" fill="#50a5dc" stroke="#27627d" stroke-linecap="round" stroke-linejoin="round" stroke-width="0.08"/><polygon points="20.93 33.77 16.75 36.19 16.75 31.36 20.93 28.95 20.93 33.77" fill="#ff818f" stroke="#27627d" stroke-linecap="round" stroke-linejoin="round" stroke-width="0.08"/><polygon points="29.28 28.95 25.1 31.36 20.92 28.95 25.1 26.54 29.28 28.95" fill="#aad6ea" stroke="#27627d" stroke-linecap="round" stroke-linejoin="round" stroke-width="0.08"/><polygon points="25.1 36.19 20.92 33.77 20.92 28.95 25.1 31.36 25.1 36.19" fill="#50a5dc" stroke="#27627d" stroke-linecap="round" stroke-linejoin="round" stroke-width="0.08"/><polygon points="29.29 33.77 25.11 36.19 25.11 31.36 29.29 28.95 29.29 33.77" fill="#ff818f" stroke="#27627d" stroke-linecap="round" stroke-linejoin="round" stroke-width="0.08"/><polygon points="37.64 28.95 33.46 31.36 29.28 28.95 33.46 26.54 37.64 28.95" fill="#aad6ea" stroke="#27627d" stroke-linecap="round" stroke-linejoin="round" stroke-width="0.08"/><polygon points="33.46 36.19 29.28 33.77 29.29 28.95 33.47 31.36 33.46 36.19" fill="#50a5dc" stroke="#27627d" stroke-linecap="round" stroke-linejoin="round" stroke-width="0.08"/><polygon points="37.65 33.77 33.47 36.19 33.47 31.36 37.65 28.95 37.65 33.77" fill="#ff818f" stroke="#27627d" stroke-linecap="round" stroke-linejoin="round" stroke-width="0.08"/><polygon points="46.01 28.95 41.83 31.36 37.65 28.95 41.83 26.54 46.01 28.95" fill="#aad6ea" stroke="#27627d" stroke-linecap="round" stroke-linejoin="round" stroke-width="0.08"/><polygon points="41.83 36.19 37.65 33.77 37.65 28.95 41.83 31.36 41.83 36.19" fill="#50a5dc" stroke="#27627d" stroke-linecap="round" stroke-linejoin="round" stroke-width="0.08"/><polygon points="46.01 33.77 41.83 36.19 41.83 31.36 46.01 28.95 46.01 33.77" fill="#ff818f" stroke="#27627d" stroke-linecap="round" stroke-linejoin="round" stroke-width="0.08"/><polygon points="50.19 36.19 46.01 33.77 46.01 28.95 50.19 31.36 50.19 36.19" fill="#50a5dc" stroke="#27627d" stroke-linecap="round" stroke-linejoin="round" stroke-width="0.08"/><polygon points="4.22 33.77 0.04 36.19 0.04 31.36 4.22 28.95 4.22 33.77" fill="#ff818f" stroke="#27627d" stroke-linecap="round" stroke-linejoin="round" stroke-width="0.08"/></svg>