<?xml version="1.0" encoding="utf-8"?>
<!-- Generator: Adobe Illustrator 19.2.0, SVG Export Plug-In . SVG Version: 6.00 Build 0)  -->
<svg version="1.1" xmlns="http://www.w3.org/2000/svg" xmlns:xlink="http://www.w3.org/1999/xlink" x="0px" y="0px"
	 viewBox="0 0 50.6 31.9" style="enable-background:new 0 0 50.6 31.9;" xml:space="preserve">
<style type="text/css">
	.st0{fill:#50A5DC;stroke:#FFFFFF;stroke-width:9.524044e-02;stroke-linejoin:bevel;stroke-miterlimit:10;}
	.st1{fill:#FF818F;stroke:#FFFFFF;stroke-width:9.524044e-02;stroke-linejoin:bevel;stroke-miterlimit:10;}
	.st2{fill:#AAD6EA;stroke:#FFFFFF;stroke-width:9.524044e-02;stroke-linejoin:bevel;stroke-miterlimit:10;}
</style>
<g id="water-drop">
	<g>
		<g>
			<g>
				<polygon class="st0" points="0,26.9 -4.3,24.5 -4.3,19.6 0,22.1 				"/>
				<polygon class="st1" points="4.2,24.5 0,26.9 0,22.1 4.2,19.6 				"/>
				<polygon class="st2" points="4.2,19.6 0,22.1 -4.3,19.6 0,17.2 				"/>
			</g>
			<g>
				<polygon class="st0" points="8.4,26.9 4.2,24.5 4.2,19.6 8.4,22.1 				"/>
				<polygon class="st1" points="12.6,24.5 8.4,26.9 8.4,22.1 12.6,19.6 				"/>
				<polygon class="st2" points="12.6,19.6 8.4,22.1 4.2,19.6 8.4,17.2 				"/>
			</g>
		</g>
		<polygon class="st0" points="16.8,26.9 12.6,24.5 12.6,19.6 16.8,22.1 		"/>
		<polygon class="st2" points="21,19.6 16.8,22.1 12.6,19.6 16.8,17.2 		"/>
		<g>
			<g>
				<polygon class="st0" points="4.2,34.2 0,31.8 0,26.9 4.2,29.4 				"/>
				<polygon class="st1" points="8.4,31.8 4.2,34.2 4.2,29.4 8.4,26.9 				"/>
				<polygon class="st2" points="8.4,26.9 4.2,29.4 0,26.9 4.2,24.5 				"/>
			</g>
			<g>
				<polygon class="st0" points="12.6,34.2 8.4,31.8 8.4,26.9 12.6,29.4 				"/>
				<polygon class="st1" points="16.8,31.8 12.6,34.2 12.6,29.4 16.8,26.9 				"/>
				<polygon class="st2" points="16.8,26.9 12.6,29.4 8.4,26.9 12.6,24.5 				"/>
			</g>
		</g>
		<g>
			<polygon class="st0" points="4.2,19.6 0,17.2 0,12.3 4.2,14.8 			"/>
			<polygon class="st1" points="8.4,17.2 4.2,19.6 4.2,14.8 8.4,12.3 			"/>
		</g>
		<g>
			<polygon class="st0" points="12.6,19.6 8.4,17.2 8.4,12.3 12.6,14.8 			"/>
			<polygon class="st1" points="16.8,17.2 12.6,19.6 12.6,14.8 16.8,12.3 			"/>
		</g>
	</g>
</g>
<g id="Layer_2">
	<g>
		<g>
			<g>
				<polygon class="st0" points="16.9,26.9 12.6,24.5 12.6,19.6 16.9,22.1 				"/>
				<polygon class="st1" points="21.1,24.5 16.9,26.9 16.9,22.1 21.1,19.6 				"/>
				<polygon class="st2" points="21.1,19.6 16.9,22.1 12.6,19.6 16.9,17.2 				"/>
			</g>
			<g>
				<polygon class="st0" points="25.3,26.9 21.1,24.5 21.1,19.6 25.3,22.1 				"/>
				<polygon class="st1" points="29.5,24.5 25.3,26.9 25.3,22.1 29.5,19.6 				"/>
				<polygon class="st2" points="29.5,19.6 25.3,22.1 21.1,19.6 25.3,17.2 				"/>
			</g>
		</g>
		<polygon class="st0" points="33.7,26.9 29.5,24.5 29.5,19.6 33.7,22.1 		"/>
		<polygon class="st2" points="37.9,19.6 33.7,22.1 29.5,19.6 33.7,17.2 		"/>
		<g>
			<g>
				<polygon class="st0" points="21.1,34.2 16.9,31.8 16.9,26.9 21.1,29.4 				"/>
				<polygon class="st1" points="25.3,31.8 21.1,34.2 21.1,29.4 25.3,26.9 				"/>
				<polygon class="st2" points="25.3,26.9 21.1,29.4 16.9,26.9 21.1,24.5 				"/>
			</g>
			<g>
				<polygon class="st0" points="29.5,34.2 25.3,31.8 25.3,26.9 29.5,29.4 				"/>
				<polygon class="st1" points="33.7,31.8 29.5,34.2 29.5,29.4 33.7,26.9 				"/>
				<polygon class="st2" points="33.7,26.9 29.5,29.4 25.3,26.9 29.5,24.5 				"/>
			</g>
		</g>
		<g>
			<polygon class="st0" points="21.1,19.6 16.9,17.2 16.9,12.3 21.1,14.8 			"/>
			<polygon class="st1" points="25.3,17.2 21.1,19.6 21.1,14.8 25.3,12.3 			"/>
		</g>
		<g>
			<polygon class="st0" points="29.5,19.6 25.3,17.2 25.3,12.3 29.5,14.8 			"/>
			<polygon class="st1" points="33.7,17.2 29.5,19.6 29.5,14.8 33.7,12.3 			"/>
		</g>
	</g>
	<g>
		<g>
			<g>
				<polygon class="st0" points="33.8,26.9 29.5,24.5 29.5,19.6 33.8,22.1 				"/>
				<polygon class="st1" points="38,24.5 33.8,26.9 33.8,22.1 38,19.6 				"/>
				<polygon class="st2" points="38,19.6 33.8,22.1 29.5,19.6 33.8,17.2 				"/>
			</g>
			<g>
				<polygon class="st0" points="42.2,26.9 38,24.5 38,19.6 42.2,22.1 				"/>
				<polygon class="st1" points="46.4,24.5 42.2,26.9 42.2,22.1 46.4,19.6 				"/>
				<polygon class="st2" points="46.4,19.6 42.2,22.1 38,19.6 42.2,17.2 				"/>
			</g>
		</g>
		<polygon class="st0" points="50.6,26.9 46.4,24.5 46.4,19.6 50.6,22.1 		"/>
		<polygon class="st2" points="54.8,19.6 50.6,22.1 46.4,19.6 50.6,17.2 		"/>
		<g>
			<g>
				<polygon class="st0" points="38,34.2 33.8,31.8 33.8,26.9 38,29.4 				"/>
				<polygon class="st1" points="42.2,31.8 38,34.2 38,29.4 42.2,26.9 				"/>
				<polygon class="st2" points="42.2,26.9 38,29.4 33.8,26.9 38,24.5 				"/>
			</g>
			<g>
				<polygon class="st0" points="46.4,34.2 42.2,31.8 42.2,26.9 46.4,29.4 				"/>
				<polygon class="st1" points="50.6,31.8 46.4,34.2 46.4,29.4 50.6,26.9 				"/>
				<polygon class="st2" points="50.6,26.9 46.4,29.4 42.2,26.9 46.4,24.5 				"/>
			</g>
		</g>
		<g>
			<polygon class="st0" points="38,19.6 33.8,17.2 33.8,12.3 38,14.8 			"/>
			<polygon class="st1" points="42.2,17.2 38,19.6 38,14.8 42.2,12.3 			"/>
		</g>
		<g>
			<polygon class="st0" points="46.4,19.6 42.2,17.2 42.2,12.3 46.4,14.8 			"/>
			<polygon class="st1" points="50.6,17.2 46.4,19.6 46.4,14.8 50.6,12.3 			"/>
		</g>
	</g>
	<g>
		<g>
			<g>
				<polygon class="st0" points="0,12.2 -4.3,9.8 -4.3,4.9 0,7.4 				"/>
				<polygon class="st1" points="4.2,9.8 0,12.2 0,7.4 4.2,4.9 				"/>
				<polygon class="st2" points="4.2,4.9 0,7.4 -4.3,4.9 0,2.5 				"/>
			</g>
			<g>
				<polygon class="st0" points="8.4,12.2 4.2,9.8 4.2,4.9 8.4,7.4 				"/>
				<polygon class="st1" points="12.6,9.8 8.4,12.2 8.4,7.4 12.6,4.9 				"/>
				<polygon class="st2" points="12.6,4.9 8.4,7.4 4.2,4.9 8.4,2.5 				"/>
			</g>
		</g>
		<polygon class="st0" points="16.8,12.2 12.6,9.8 12.6,4.9 16.8,7.4 		"/>
		<polygon class="st2" points="21,4.9 16.8,7.4 12.6,4.9 16.8,2.5 		"/>
		<g>
			<g>
				<polygon class="st0" points="4.2,19.5 0,17.1 0,12.2 4.2,14.7 				"/>
				<polygon class="st1" points="8.4,17.1 4.2,19.5 4.2,14.7 8.4,12.2 				"/>
				<polygon class="st2" points="8.4,12.2 4.2,14.7 0,12.2 4.2,9.8 				"/>
			</g>
			<g>
				<polygon class="st0" points="12.6,19.5 8.4,17.1 8.4,12.2 12.6,14.7 				"/>
				<polygon class="st1" points="16.8,17.1 12.6,19.5 12.6,14.7 16.8,12.2 				"/>
				<polygon class="st2" points="16.8,12.2 12.6,14.7 8.4,12.2 12.6,9.8 				"/>
			</g>
		</g>
		<g>
			<polygon class="st0" points="4.2,4.9 0,2.5 0,-2.4 4.2,0.1 			"/>
			<polygon class="st1" points="8.4,2.5 4.2,4.9 4.2,0.1 8.4,-2.4 			"/>
		</g>
		<g>
			<polygon class="st0" points="12.6,4.9 8.4,2.5 8.4,-2.4 12.6,0.1 			"/>
			<polygon class="st1" points="16.8,2.5 12.6,4.9 12.6,0.1 16.8,-2.4 			"/>
		</g>
	</g>
	<g>
		<g>
			<g>
				<polygon class="st0" points="16.9,12.2 12.6,9.8 12.6,4.9 16.9,7.4 				"/>
				<polygon class="st1" points="21.1,9.8 16.9,12.2 16.9,7.4 21.1,4.9 				"/>
				<polygon class="st2" points="21.1,4.9 16.9,7.4 12.6,4.9 16.9,2.5 				"/>
			</g>
			<g>
				<polygon class="st0" points="25.3,12.2 21.1,9.8 21.1,4.9 25.3,7.4 				"/>
				<polygon class="st1" points="29.5,9.8 25.3,12.2 25.3,7.4 29.5,4.9 				"/>
				<polygon class="st2" points="29.5,4.9 25.3,7.4 21.1,4.9 25.3,2.5 				"/>
			</g>
		</g>
		<polygon class="st0" points="33.7,12.2 29.5,9.8 29.5,4.9 33.7,7.4 		"/>
		<polygon class="st2" points="37.9,4.9 33.7,7.4 29.5,4.9 33.7,2.5 		"/>
		<g>
			<g>
				<polygon class="st0" points="21.1,19.5 16.9,17.1 16.9,12.2 21.1,14.7 				"/>
				<polygon class="st1" points="25.3,17.1 21.1,19.5 21.1,14.7 25.3,12.2 				"/>
				<polygon class="st2" points="25.3,12.2 21.1,14.7 16.9,12.2 21.1,9.8 				"/>
			</g>
			<g>
				<polygon class="st0" points="29.5,19.5 25.3,17.1 25.3,12.2 29.5,14.7 				"/>
				<polygon class="st1" points="33.7,17.1 29.5,19.5 29.5,14.7 33.7,12.2 				"/>
				<polygon class="st2" points="33.7,12.2 29.5,14.7 25.3,12.2 29.5,9.8 				"/>
			</g>
		</g>
		<g>
			<polygon class="st0" points="21.1,4.9 16.9,2.5 16.9,-2.4 21.1,0.1 			"/>
			<polygon class="st1" points="25.3,2.5 21.1,4.9 21.1,0.1 25.3,-2.4 			"/>
		</g>
		<g>
			<polygon class="st0" points="29.5,4.9 25.3,2.5 25.3,-2.4 29.5,0.1 			"/>
			<polygon class="st1" points="33.7,2.5 29.5,4.9 29.5,0.1 33.7,-2.4 			"/>
		</g>
	</g>
	<g>
		<g>
			<g>
				<polygon class="st0" points="33.8,12.2 29.5,9.8 29.5,4.9 33.8,7.4 				"/>
				<polygon class="st1" points="38,9.8 33.8,12.2 33.8,7.4 38,4.9 				"/>
				<polygon class="st2" points="38,4.9 33.8,7.4 29.5,4.9 33.8,2.5 				"/>
			</g>
			<g>
				<polygon class="st0" points="42.2,12.2 38,9.8 38,4.9 42.2,7.4 				"/>
				<polygon class="st1" points="46.4,9.8 42.2,12.2 42.2,7.4 46.4,4.9 				"/>
				<polygon class="st2" points="46.4,4.9 42.2,7.4 38,4.9 42.2,2.5 				"/>
			</g>
		</g>
		<polygon class="st0" points="50.6,12.2 46.4,9.8 46.4,4.9 50.6,7.4 		"/>
		<polygon class="st2" points="54.8,4.9 50.6,7.4 46.4,4.9 50.6,2.5 		"/>
		<g>
			<g>
				<polygon class="st0" points="38,19.5 33.8,17.1 33.8,12.2 38,14.7 				"/>
				<polygon class="st1" points="42.2,17.1 38,19.5 38,14.7 42.2,12.2 				"/>
				<polygon class="st2" points="42.2,12.2 38,14.7 33.8,12.2 38,9.8 				"/>
			</g>
			<g>
				<polygon class="st0" points="46.4,19.5 42.2,17.1 42.2,12.2 46.4,14.7 				"/>
				<polygon class="st1" points="50.6,17.1 46.4,19.5 46.4,14.7 50.6,12.2 				"/>
				<polygon class="st2" points="50.6,12.2 46.4,14.7 42.2,12.2 46.4,9.8 				"/>
			</g>
		</g>
		<g>
			<polygon class="st0" points="38,4.9 33.8,2.5 33.8,-2.4 38,0.1 			"/>
			<polygon class="st1" points="42.2,2.5 38,4.9 38,0.1 42.2,-2.4 			"/>
		</g>
		<g>
			<polygon class="st0" points="46.4,4.9 42.2,2.5 42.2,-2.4 46.4,0.1 			"/>
			<polygon class="st1" points="50.6,2.5 46.4,4.9 46.4,0.1 50.6,-2.4 			"/>
		</g>
	</g>
</g>
</svg>
